Coordinates
version=1
nRows=13
nColumns=36
inDegrees=yes

Units are S.I. units (second, meters, Newtons, ...)
If the header above contains a line with 'inDegrees', this indicates whether rotational values are in degrees (yes) or radians (no).

endheader
time	pelvis_tilt	pelvis_list	pelvis_rotation	pelvis_tx	pelvis_ty	pelvis_tz	hip_flexion_r	hip_adduction_r	hip_rotation_r	knee_angle_r	knee_angle_r_beta	ankle_angle_r	subtalar_angle_r	mtp_angle_r	hip_flexion_l	hip_adduction_l	hip_rotation_l	knee_angle_l	knee_angle_l_beta	ankle_angle_l	subtalar_angle_l	mtp_angle_l	lumbar_extension	lumbar_bending	lumbar_rotation	arm_flex_r	arm_add_r	arm_rot_r	elbow_flex_r	pro_sup_r	arm_flex_l	arm_add_l	arm_rot_l	elbow_flex_l	pro_sup_l
      0.72000000	     -1.46460531	      2.24611180	     -2.12113268	      0.72953281	      0.93944523	     -0.20418293	     -5.54167720	     -3.56713574	     -4.29113811	     40.24347909	      0.70238121	     -0.81798843	     -0.71198085	     -7.16160994	     21.50900314	      4.61167026	     -7.73243536	     16.36479682	      0.28561959	     -0.77224342	     -9.80912244	     -7.16160994	     -2.26718169	     -5.88499875	     12.61660258	     10.95297349	     -1.92488372	     -8.45309215	     45.47430451	    106.32459178	    -16.91858444	     -2.75503704	    -18.39785098	     17.39506063	     98.49230529
      0.73000000	     -1.30449911	      2.72710706	     -2.04858008	      0.74005902	      0.94036339	     -0.20615389	     -3.80603858	     -4.72293707	     -4.67618556	     44.06453402	      0.76907120	     -3.20864584	     -1.29061458	     -7.16924784	     20.61395480	      5.30395099	     -7.87735282	     16.39877514	      0.28621262	      0.07911070	     -9.47882373	     -7.16924784	     -2.49925689	     -6.52518604	     11.91368622	     10.78971205	     -1.79690281	     -7.85276512	     44.65074033	    106.34097472	    -16.09660547	     -2.77636805	    -17.94907962	     17.90523833	     98.63578549
      0.74000000	     -1.06783538	      3.22003124	     -1.98870345	      0.75039990	      0.94128066	     -0.20811151	     -2.12910253	     -5.90740041	     -4.98344171	     47.77471452	      0.83382607	     -5.00789148	     -1.68450298	     -7.17292128	     19.56206341	      6.04655768	     -7.95846420	     16.25185000	      0.28364829	      0.81929306	     -9.44057109	     -7.17292128	     -2.86119355	     -7.17724017	     11.25792602	     10.55814454	     -1.63607135	     -7.52852240	     44.06496133	    106.34234513	    -15.10434859	     -2.81613559	    -17.62933219	     18.38004764	     98.74128694
      0.75000000	     -0.92953478	      3.64297274	     -1.99112795	      0.76042762	      0.94206087	     -0.20989777	     -0.27646467	     -6.95624975	     -5.06781389	     51.36687469	      0.89652109	     -6.34965124	     -2.38821051	     -7.17664017	     18.56947599	      6.71508205	     -7.91301184	     15.96443562	      0.27863196	      1.42770798	     -9.37470658	     -7.17664017	     -3.10393575	     -7.72375797	     10.63648816	     10.35760751	     -1.52152621	     -7.13567729	     43.34249537	    106.34582579	    -14.09081365	     -2.86487359	    -17.20944813	     18.94794076	     98.87303345
      0.76000000	     -0.97378778	      3.92268129	     -2.00929112	      0.77020752	      0.94263237	     -0.21142755	      1.82338463	     -7.71395542	     -4.94292947	     54.78290754	      0.95614211	     -7.25950437	     -3.76564427	     -7.18561453	     17.75652093	      7.20987247	     -7.74972141	     15.61492385	      0.27253183	      1.82608564	     -9.40639454	     -7.18561453	     -3.09775789	     -8.14373055	      9.98516868	     10.26031359	     -1.48346604	     -6.29625000	     42.22439803	    106.38221100	    -13.16018169	     -3.01001971	    -16.32140733	     19.56349607	     99.11278087
      0.77000000	     -0.80256714	      4.21954165	     -2.07550363	      0.77979600	      0.94352839	     -0.21300817	      3.67556293	     -8.51403013	     -4.83625532	     57.92024448	      1.01089897	     -7.29757375	     -4.63873186	     -7.18943060	     16.70536118	      7.73090567	     -7.75803633	     15.21828384	      0.26560916	      2.42995395	     -9.46329796	     -7.18943060	     -3.42192328	     -8.51904321	      9.42797892	     10.03548844	     -1.44085800	     -6.03097559	     41.57290777	    106.37769403	    -11.92334417	     -3.04407727	    -15.83793800	     20.01279250	     99.23690445
      0.78000000	     -0.76266467	      4.41291133	     -2.19339317	      0.78918657	      0.94436700	     -0.21429175	      5.70347608	     -9.05306931	     -4.51618651	     60.79485004	      1.06107030	     -6.81258742	     -5.73403035	     -7.19294994	     15.79245666	      8.10450414	     -7.71339649	     14.80350927	      0.25836998	      2.92974028	     -9.43053299	     -7.19294994	     -3.58604452	     -8.81660326	      8.94629145	      9.81912940	     -1.39674463	     -5.73213283	     40.76686517	    106.37333565	    -10.68139342	     -3.15200900	    -15.21741252	     20.49484018	     99.38093158
      0.79000000	     -0.82126106	      4.49563736	     -2.31724777	      0.79847302	      0.94519196	     -0.21544280	      7.82400791	     -9.38043067	     -4.17098818	     63.32906787	      1.10530075	     -6.01004421	     -6.90759495	     -7.19752182	     14.98951629	      8.33201046	     -7.73600305	     14.37980894	      0.25097501	      3.39382254	     -9.34909938	     -7.19752182	     -3.58510156	     -8.96309562	      8.47587497	      9.59972549	     -1.39141859	     -5.33549424	     39.79427145	    106.37948334	     -9.43363049	     -3.30951057	    -14.27290350	     20.87652903	     99.56294314
      0.80000000	     -0.92120040	      4.45536273	     -2.42413648	      0.80759944	      0.94615535	     -0.21650212	      9.94123378	     -9.45745420	     -3.78102932	     65.44662655	      1.14225912	     -5.24666289	     -7.94606501	     -7.21613363	     14.32139740	      8.37177603	     -7.99254271	     14.14485800	      0.24687434	      4.00935482	     -8.97988621	     -7.21613363	     -3.55942153	     -8.93169772	      7.97246582	      9.46452761	     -1.53075567	     -4.38307887	     38.54761085	    106.47689114	     -7.97319073	     -3.77511344	    -10.94031260	     20.38298404	     99.93561448
      0.81000000	     -0.76981300	      4.16545342	     -2.39756189	      0.81672212	      0.94767271	     -0.21769863	     11.58579529	     -9.25421288	     -3.66325434	     66.98304414	      1.16907466	     -4.80160588	     -8.46982406	     -7.21716792	     13.31412334	      8.19247009	     -8.05279500	     13.80548303	      0.24095113	      4.24055422	     -8.86666152	     -7.21716792	     -3.97213841	     -8.63171801	      7.32325481	      9.14616119	     -1.55230139	     -4.43422100	     38.07835500	    106.44696007	     -6.53255459	     -3.74848122	    -10.70359362	     20.86854933	     99.99365661
      0.82000000	     -0.90055655	      4.23192670	     -2.62514832	      0.82590343	      0.94876308	     -0.21846713	     13.66711066	     -9.22043388	     -2.97179117	     68.40830008	      1.19395007	     -3.66595437	     -9.60265622	     -7.21991575	     12.48157749	      8.39266858	     -7.99120209	     13.17641624	      0.22997185	      4.88795143	     -8.49397349	     -7.21991575	     -3.85390816	     -8.77919012	      7.00333908	      8.82015743	     -1.45195817	     -4.46584477	     36.97781329	    106.39533755	     -5.17854758	     -3.93157633	    -10.00465730	     21.25330791	    100.08864976
      0.83000000	     -1.02847656	      3.91482367	     -2.54962727	      0.83511631	      0.95008628	     -0.21953022	     15.45923374	     -8.80390040	     -2.78827676	     69.20412090	      1.20783977	     -3.24826713	    -10.15190398	     -7.24012596	     11.84192417	      8.07739932	     -8.66745838	     12.99347389	      0.22677890	      6.02396828	     -6.98146965	     -7.24012596	     -3.73457435	     -8.38443242	      6.42383536	      8.51042684	     -1.56084442	     -4.10885696	     35.69061929	    106.45719417	     -3.54620578	     -4.53925673	     -5.55659432	     20.38747479	    100.27162988
      0.84000000	     -1.02684560	      3.63415606	     -2.45436884	      0.84431014	      0.95161455	     -0.22063171	     17.01553624	     -8.39148074	     -2.59372637	     69.64873970	      1.21559983	     -2.75129350	    -10.54328160	     -7.24332300	     10.87959964	      7.94198629	     -8.52221163	     12.41780260	      0.21673154	      6.40168341	     -6.65670075	     -7.24332300	     -3.86686553	     -8.08776258	      5.74226939	      8.08315255	     -1.53448486	     -4.44004726	     34.96074728	    106.39100364	     -2.15258212	     -4.62153497	     -5.15896497	     20.87944567	    100.26807972
